<svg id="Слой_1" data-name="Слой 1" xmlns="http://www.w3.org/2000/svg" viewBox="0 0 630.18 9.48"><rect x="627.42" y="2.12" width="2.76" height="5.47"/><rect x="585.71" y="2.12" width="2.76" height="5.47"/><rect x="544.01" y="2.12" width="2.76" height="5.47"/><rect x="502.3" y="2.12" width="2.76" height="5.47"/><rect x="460.6" y="2.12" width="2.76" height="5.47"/><rect x="418.89" y="2.12" width="2.76" height="5.47"/><rect x="377.19" y="2.12" width="2.76" height="5.47"/><rect x="333.33" y="1.39" width="6.7" height="6.7" transform="translate(95.26 239.46) rotate(-45)"/><rect x="293.77" y="2.01" width="2.76" height="5.47"/><rect x="252.07" y="2.01" width="2.76" height="5.47"/><rect x="210.36" y="2.01" width="2.76" height="5.47"/><rect x="168.66" y="2.01" width="2.76" height="5.47"/><rect x="126.95" y="2.01" width="2.76" height="5.47"/><rect x="85.25" y="2.01" width="2.76" height="5.47"/><rect x="43.54" y="2.01" width="2.76" height="5.47"/><polygon points="6.44 4.63 3.16 9.13 0 4.63 3.16 0.14 6.44 4.63"/></svg>