<?xml version="1.0" encoding="utf-8"?>
<!-- Generator: Adobe Illustrator 26.0.3, SVG Export Plug-In . SVG Version: 6.00 Build 0)  -->
<svg version="1.1" id="Layer_1" xmlns="http://www.w3.org/2000/svg" xmlns:xlink="http://www.w3.org/1999/xlink" x="0px" y="0px"
	 viewBox="0 0 500 500" style="enable-background:new 0 0 500 500;" xml:space="preserve">
<g>
	<path style="stroke-width: 3px;stroke:#ffffff;" d="M249.2,0C111.5,0.4,0.2,112,0,249.9C0,388.1,112.1,501.5,253.1,500c135.6-1.5,246.8-111.4,246.9-249.8
		C500.1,111.7,388.2-0.4,249.2,0z M250.4,491.5C117.5,491.7,10,384.8,8.5,252.7C7.1,118,115.6,8.6,250,8.5
		c132.6,0,240.3,106.7,241.5,239.2C492.8,382.2,384.4,491.3,250.4,491.5z"/>
	<path style="stroke-width: 3px;stroke:#ffffff;" d="M398.9,130.6c-9.3-11.6-19.8-21.9-31.5-31c2.4-3.1,4.5-6,6.8-9c1.9,1.4,3.7,2.4,5.1,3.7c5.7,5.3,11.3,10.6,16.9,16
		c2.1,2,4.7,2.1,6.8,0.2c4.4-4.1,8.9-8.3,13.2-12.5c3-2.9,3.1-4.9,0.3-8c-2.7-2.8-5.5-5.5-8.3-8.2c-1.8-1.8-3.5-3.8-5.5-5.4
		c-4.4-3.6-8.8-7.1-13.4-10.4c-5.6-4.1-11.3-8-17-12c-2-1.4-4-2.7-6-3.9c-3.2-1.8-5.8-1.1-7.6,2.2c-3.3,6-6.6,12-10,18
		c-2.3,4.1-4.5,8.2-6.8,12.4c-13.2-7-26.7-13-41.4-16.7c1.1-3.7,2.1-7.2,3.2-10.9c4.6,1.3,9,2.3,13.2,3.8c4.7,1.7,9.3,3.8,14,5.7
		c3.5,1.5,5.3,0.8,7-2.7c2.5-5.3,4.9-10.6,7.4-15.9c1.9-4.1,1.2-6.1-3-8c-3.4-1.5-6.8-3.3-10.4-4.4c-11.3-3.5-22.6-7-34-10
		c-5.6-1.5-11.5-1.9-17.3-2.6c-3.4-0.4-5.7,1-5.9,3.4c-0.7,6.6-1.4,13.2-2.1,19.8c-0.5,5.2-0.9,10.3-1.4,15.7
		c-15.1-1.6-29.8-1.5-44.8,0.3c-0.5-3.8-1-7.4-1.4-11.1c0.8-0.1,1.3-0.2,1.8-0.3c8.9-0.4,17.8-0.8,26.6-1.2c3.9-0.1,5.6-1.7,5.8-5.5
		c0.3-6.2,0.5-12.3,0.9-18.5c0.1-2.2-0.9-3.6-2.8-4.3c-1.3-0.5-2.8-0.7-4.2-0.7c-12.8-0.2-25.5,0.6-38.1,2.8
		c-8.2,1.4-16.3,3.1-24.4,5c-3.8,0.9-4.8,3.2-3.8,6.8c3,10.4,6,20.7,9,31.1c0.2,0.7,0.3,1.3,0.4,1.9c-14.1,4.7-27.8,10-40.6,17.6
		c-1.9-3.3-3.8-6.5-5.9-10c4.6-2.4,9-4.8,13.6-7c4.5-2.1,9.1-4,13.5-6.1c2.5-1.2,3.1-3.2,2.1-5.8c-2.1-5.8-4.1-11.6-6.2-17.4
		c-1.2-3.3-3.9-4.6-7-3.2c-7.1,3.1-14.1,6.4-21.1,9.7c-2.7,1.3-5.3,2.9-7.9,4.5c-5.7,3.4-11.4,6.7-17,10.3c-3.8,2.5-7.4,5.4-11,8.1
		c-2,1.5-2.4,4.4-0.8,6.4c1.7,2.3,3.5,4.5,5.3,6.7c5,6.1,10,12.2,15,18.3c0.5,0.6,1,1.1,1.2,1.8c0.1,0.6,0,1.6-0.4,2
		c-3.1,2.9-6.5,5.7-9.6,8.7c-5.3,5.2-10.4,10.5-15.5,15.9c-1.7,1.8-3.2,3.9-4.9,6.1c-3.1-2.3-6-4.5-9-6.8c1.6-2.1,3-4.2,4.7-6
		c5-5.4,10.1-10.8,15.1-16.1c2.3-2.4,2.3-4.3,0-6.7c-4.2-4.5-8.5-9.1-12.8-13.5c-2.5-2.6-4.4-2.7-7-0.3c-2.5,2.3-4.9,4.8-7.3,7.2
		c-2.1,2.2-4.4,4.2-6.4,6.5c-3.6,4.4-7.1,8.8-10.4,13.4c-4,5.5-7.9,11.2-11.8,16.8c-1.5,2.1-2.9,4.2-4.2,6.4
		c-1.5,2.7-1.2,6.1,0.6,7.2c3.3,2,6.6,3.9,10,5.7c4.8,2.6,9.7,5.2,14.6,7.8c2.4,1.3,4.8,2.5,7.3,3.8c-7,13.4-13.1,27-16.6,41.7
		c-3.8-1.1-7.3-2.1-11-3.2c1.4-4.8,2.5-9.5,4.1-14c1.6-4.6,3.7-9,5.5-13.6c1.3-3.2,0.6-5-2.5-6.4c-5.5-2.6-11-5.2-16.5-7.7
		c-3.9-1.7-5.7-0.9-7.6,3c-5.7,12.2-9.5,25-12.7,37.9c-1.9,7.7-2.9,15.7-4.1,23.6c-0.6,4.1,1.2,6.2,5.2,6.5c7.6,0.6,15.2,1.2,22.7,2
		c3.6,0.3,7.2,0.9,11,1.4c-1.5,14.5-1.4,28.8,0.3,43.3c-3.8,0.5-7.4,0.9-11.1,1.3c-0.1-0.8-0.2-1.2-0.2-1.5
		c-0.4-8.5-0.8-17-1.1-25.4c-0.2-3.9-1.6-5.5-5.5-5.7c-5.9-0.3-11.8-0.6-17.8-0.8c-3.6-0.1-5.5,1.5-5.6,5.2c-0.1,2.9-0.2,5.8,0,8.6
		c1,11.8,1.9,23.6,3.4,35.4c0.8,6.4,2.5,12.7,4.2,18.9c0.9,3.5,3.1,4.4,6.6,3.5c7.5-2.1,15.1-4.2,22.6-6.3c3.6-1,7.1-2.2,10.5-3.2
		c4.6,14.3,10,28,17.5,40.8c-3.3,1.9-6.4,3.8-9.8,5.7c-1.5-2.6-3.2-5.1-4.5-7.9c-2.8-5.9-5.4-11.9-8.1-17.9
		c-1.6-3.7-3.4-4.5-7.1-3.2c-5.5,1.9-11,3.9-16.5,5.8c-3.7,1.3-4.9,3.9-3.3,7.5c3.2,7.3,6.5,14.6,10,21.8c2.3,4.7,4.7,9.5,7.6,13.9
		c4.6,7,9.6,13.7,14.4,20.6c1.9,2.7,4.4,3,7,1c3.3-2.6,6.6-5.2,9.9-7.9c1.3-1.1,2.5-2.3,3.8-3.3c2.3-1.8,4.6-3.6,7-5.4
		c2.2-1.7,4.5-3.5,6.8-5.3c9.4,11.9,20,22.1,31.6,31.2c-2.4,3.1-4.6,6-7.2,9.5c-7.3-6.9-14.4-13.4-21.3-19.9
		c-2.5-2.3-4.9-2.5-7.3-0.3c-4.4,4.1-8.8,8.3-13.2,12.5c-2.7,2.5-3,4.5-0.5,7.2c4.6,4.8,9.3,9.7,14.2,14.1
		c4.3,3.8,8.9,7.2,13.6,10.6c5.5,4,11.1,7.8,16.7,11.7c2.1,1.5,4.2,2.9,6.4,4.2c2.9,1.7,5.6,0.8,7.2-2.1c1.5-2.6,3.1-5.2,4.6-7.9
		c2.5-4.6,4.9-9.2,7.4-13.7c1.6-3,3.3-6,5-9c13.2,7.1,26.7,13,41.4,16.7c-1,3.6-2,7.1-3.1,10.9c-4.7-1.3-9.1-2.4-13.4-3.9
		c-4.9-1.7-9.6-4-14.4-5.9c-2.8-1.1-4.7-0.4-6,2.2c-2.9,6-5.7,12-8.4,18c-0.8,1.8-0.7,3.8,1.3,4.8c3.9,2,7.7,4.4,11.8,5.6
		c12.7,3.9,25.4,7.6,38.2,11c4.5,1.2,9.3,1.5,14,2c3.5,0.4,5.7-1,6-3.6c0.8-7.5,1.5-15,2.2-22.5c0.4-4.3,0.9-8.5,1.3-12.9
		c15,1.6,29.7,1.5,44.6-0.3c0.5,3.8,1,7.4,1.4,11.1c-1.2,0.1-2,0.3-2.9,0.3c-8.7,0.4-17.4,0.7-26.2,1.1c-3.2,0.1-5,1.9-5.1,5.1
		c-0.3,6.2-0.6,12.3-0.8,18.5c-0.1,2.5,0.9,4.1,3.3,4.9c1,0.3,2.2,0.4,3.3,0.4c12.8,0.3,25.5-0.6,38.1-2.7
		c8.3-1.4,16.6-3.2,24.9-5.1c3.7-0.8,4.7-3.2,3.7-6.7c-3.1-10.5-6.1-21-9.1-31.6c-0.1-0.5-0.2-1-0.4-1.5c14.1-4.7,27.8-10,40.6-17.6
		c1.9,3.3,3.8,6.5,5.9,9.9c-4.5,2.4-8.8,4.8-13.3,7c-4.5,2.1-9.1,3.9-13.6,6c-2.6,1.2-3.3,3.2-2.4,6c2,5.8,4.1,11.6,6.2,17.4
		c1.2,3.4,4,4.6,7.2,3.2c7.8-3.5,15.5-7.1,23.2-10.8c1.9-0.9,3.7-2.2,5.6-3.3c5.7-3.4,11.6-6.8,17.2-10.4c3.8-2.4,7.2-5.3,10.8-8
		c2-1.5,2.4-4.4,0.9-6.4c-2.1-2.7-4.2-5.4-6.4-8.1c-4.3-5.2-8.6-10.5-12.9-15.7c-0.8-1-1.7-2-2.2-3.1c-0.2-0.5,0-1.6,0.4-2
		c3.1-2.9,6.5-5.7,9.6-8.7c5.3-5.2,10.4-10.5,15.5-15.9c1.7-1.8,3.2-3.9,4.9-6.1c3.1,2.3,6,4.5,9,6.8c-1.8,2.2-3.3,4.4-5.1,6.3
		c-4.9,5.4-9.9,10.6-14.9,16c-2.1,2.3-2.1,4.1,0,6.3c4.3,4.6,8.6,9.2,13,13.7c2.5,2.6,4.5,2.7,7.2,0.2c2.4-2.2,4.7-4.5,6.9-6.9
		c4.3-4.6,8.8-9.1,12.6-14c5.2-6.7,10-13.8,14.9-20.8c1.9-2.8,3.8-5.6,5.4-8.5c2-3.5,1.2-6.2-2.3-8.2c-8-4.5-16-9-24.1-13.4
		c-1.9-1.1-4-1.9-6.1-2.8c7.1-13.5,13.1-27,16.6-41.8c3.7,1.1,7.3,2.1,11,3.2c-1.5,5.1-2.8,9.9-4.5,14.7c-1.5,4.4-3.5,8.6-5.2,12.9
		c-1.2,3.1-0.5,5,2.4,6.3c5.6,2.6,11.4,5.1,16.9,7.9c3.2,1.6,5.6,0.4,7.1-2.8c1.6-3.4,3.3-6.8,4.4-10.4c3.5-11.3,7-22.6,10-34.1
		c1.5-5.7,1.9-11.7,2.6-17.6c0.5-4.3-1.1-6.1-5.3-6.4c-6-0.5-12-0.9-18-1.5c-5.2-0.5-10.4-1.2-15.5-1.7c0.3-7.5,0.7-14.6,0.7-21.7
		c-0.1-7.2-0.6-14.3-1-21.7c3.5-0.4,7-0.9,10.7-1.3c0.1,0.9,0.3,1.6,0.4,2.3c0.4,8.3,0.7,16.6,1,25c0.1,3.2,1.7,5.3,4.5,5.4
		c6.3,0.3,12.6,0.6,19,0.8c3.2,0.1,5.1-1.6,5.4-4.8c0.1-0.7,0.1-1.4,0.1-2.2c0.3-16.9-1.8-33.6-4.7-50.1c-0.7-3.8-1.8-7.6-3-11.4
		c-0.9-2.9-2.9-4.2-5.2-3.6c-8.7,2.4-17.4,4.9-26.1,7.4c-2.9,0.8-5.7,1.7-8.4,2.5c-4.5-14.4-10-28-17.4-40.8
		c3.3-1.9,6.5-3.8,9.8-5.7c1.8,3.2,3.7,6.2,5.3,9.4c2.6,5.4,4.9,10.9,7.3,16.4c1.6,3.6,3.4,4.4,7,3.1c5.6-2,11.2-3.9,16.7-5.9
		c3.5-1.2,4.7-3.7,3.4-7.2c-2.2-5.5-4.4-11-7-16.3c-2.7-5.7-5.6-11.3-9-16.6c-5.2-8.2-10.9-16.1-16.5-24.1c-1.4-2.1-4.1-2.4-6.1-0.9
		c-2,1.5-4,3.1-6,4.7c-6.1,4.9-12.1,9.9-18.2,14.8C401.6,128.9,400.3,129.7,398.9,130.6z M425,122.8c1.7-1.2,3.4-2.3,5.5-3.6
		c10.2,14.3,18.8,29.2,25.2,45.3c-3.8,1.6-7.4,3.1-11.4,4.7c-0.9-2.4-1.7-4.6-2.7-6.8c-2.5-4.9-5.1-9.8-7.6-14.7
		c-1-1.9-1.9-3.8-3.1-5.7c-2-3.2-4.3-3.5-7.4-1.5c-4.8,3.1-9.8,6.1-14.6,9.1c-2.8,1.8-3.4,4.2-1.8,7.2c2.4,4.3,5.1,8.4,7.1,12.8
		c3.5,7.7,6.6,15.6,9.7,23.5c1.2,3.1,1.7,6.5,2.6,9.7c0.9,3.3,3,4.4,6.4,3.6c11.2-2.7,22.5-5.4,33.7-8.1c2.5,4.6,7.3,41.8,6.1,51.5
		c-4,0-8,0-12.4,0c0-1.9,0.1-3.7,0-5.5c-0.5-8-1-16-1.6-23.9c-0.3-3.7-2.8-5.4-6.5-4.8c-5.8,1-11.5,2-17.3,2.9
		c-3,0.5-4.2,2.4-3.9,5.8c0.7,7.2,1.7,14.5,1.8,21.8c0.1,8.7-0.6,17.4-1.3,26.1c-0.3,4.4,0.8,6.2,5.2,6.8
		c10.8,1.6,21.5,3.2,32.3,4.7c0.3,0,0.6,0.1,1.1,0.2c-1.5,17.6-7.6,33.9-13.3,50.5c-4-1.8-7.7-3.4-11.5-5c1.5-3.9,3-7.6,4.2-11.3
		c1.8-5.8,3.4-11.6,5-17.5c0.8-3.1-0.5-5.2-3.6-6c-5.9-1.5-11.8-2.8-17.8-4.1c-3.1-0.7-4.8,0.5-5.7,3.7c-1.6,5.6-3,11.3-5,16.7
		c-1.8,5.2-4.1,10.2-6.4,15.2c-2.4,5.1-5,10-7.5,15c-1.3,2.6-0.9,4.5,1.7,6.1c3.4,2.1,6.9,4,10.3,6.1c4.1,2.5,8.1,5.2,12.2,7.7
		c2.6,1.6,5.4,3.1,8.2,4.7c-9.4,14.9-19.8,28.6-32.1,40.9c-3.1-2.9-6.1-5.7-8.5-8.1c6.6-8.1,13.1-15.8,19.4-23.7
		c2.1-2.7,1.6-4.7-1.2-6.7c-4.7-3.4-9.4-6.8-14.2-10.2c-3.3-2.3-4.9-1.8-7.4,1.2c-4.8,5.8-9.6,11.8-14.9,17.2
		c-5.8,5.9-12.2,11.2-18.3,16.8c-1,0.9-2.2,1.8-2.8,2.9c-0.6,1.2-0.9,2.8-0.5,4c0.6,1.8,1.7,3.4,2.9,5c4.2,5.8,8.6,11.6,12.9,17.3
		c1.8,2.5,3.7,5,5.7,7.7c-14.3,10.3-29.2,18.9-45.4,25.5c-1.5-3.8-3-7.5-4.6-11.5c2.2-0.9,4.3-1.5,6.3-2.5c5-2.5,9.9-5.2,14.9-7.8
		c1.8-1,3.7-1.8,5.5-2.9c3.5-2.1,3.9-4.3,1.7-7.7c-3-4.8-6-9.6-9-14.4c-1.8-2.9-4.3-3.5-7.3-1.8c-4,2.3-7.9,4.9-12.1,6.8
		c-8.1,3.6-16.3,7-24.5,10.2c-3,1.2-6.3,1.6-9.5,2.6c-3.1,0.9-4,3-3.3,6.1c2.6,10.9,5.2,21.8,7.8,32.7c0.1,0.5,0.1,0.9,0.2,1.4
		c-6.7,2.7-44,7.4-51.3,5.9c0-3.9,0-7.9,0-12.1c0.9,0,1.7-0.1,2.6-0.1c9.1-0.6,18.2-1.1,27.3-1.9c3.7-0.3,5-2.5,4.3-6.3
		c-1-5.8-2.1-11.7-3.2-17.5c-0.6-3-1.9-4-5.1-3.7c-4.9,0.5-9.9,1.2-14.8,1.6c-11.4,0.8-22.9,0.5-34.3-0.9c-1.7-0.2-3.7,0.1-5.2,0.8
		c-0.9,0.4-1.6,1.9-1.8,3.1c-1.2,7.7-2.2,15.5-3.4,23.3c-0.5,3.7-1.2,7.4-1.9,11.4c-4.4-0.7-8.8-1-12.9-2.1
		c-8.3-2.2-16.5-4.7-24.6-7.2c-3.7-1.1-7.4-2.5-11.1-3.8c-1.2-0.4-1.8-1-1.2-2.3c1.5-3.3,2.9-6.6,4.4-10c2.2,0.9,4.2,1.9,6.3,2.6
		c7.5,2.3,14.9,4.6,22.5,6.8c3,0.9,5.2-0.4,6-3.5c1.5-6,3-12.1,4.3-18.2c0.6-2.6-1-4.5-3.9-5.4c-5.8-1.7-11.6-3-17.2-5.1
		c-9.9-3.7-19.6-7.8-28.6-13.3c-3.6-2.2-5.3-1.7-7.5,1.8c-5.6,9.1-11.2,18.3-16.7,27.4c-0.5,0.7-0.9,1.5-1.6,2.5
		c-1.9-1.3-3.7-2.5-5.5-3.8c-7.8-5.7-15.6-11.4-23.2-17.3c-3.8-2.9-7-6.5-10.6-9.7c-1.4-1.2-1-2.1,0.2-3.3c2.3-2.4,4.5-5,6.7-7.4
		c7.5,7.9,15.3,14.2,23.3,20.3c2.9,2.1,4.9,1.8,6.9-1.1c3.4-4.7,6.8-9.4,10.2-14.2c2.3-3.2,1.9-4.8-1-7.3
		c-8.5-7.1-17.2-14.1-24.5-22.4c-3.8-4.3-7.5-8.7-11.3-13c-2.2-2.4-3.9-2.5-6.5-0.6c-6.9,4.9-13.8,9.8-20.6,14.8
		c-2.6,1.8-5.1,3.8-7.9,5.9c-10.3-14.5-18.9-29.3-25.3-45.4c3.7-1.6,7.5-3.1,11.4-4.8c1,2.5,1.8,4.9,2.9,7.2
		c2.4,4.8,4.9,9.5,7.4,14.3c1,1.9,1.9,3.8,3.1,5.7c1.9,3.2,4.3,3.5,7.4,1.5c4.8-3.1,9.8-6.1,14.6-9.1c2.8-1.8,3.4-4.2,1.8-7.2
		c-2.2-4-4.8-7.8-6.7-11.9c-3.6-7.9-6.8-16-10-24.1c-1.2-3.1-1.7-6.5-2.6-9.7c-1-3.6-2.9-4.6-6.7-3.7c-11.2,2.7-22.4,5.3-33.5,8
		c-2.7-5.9-7.3-42.7-6-51.4c3.9,0,7.9,0,12.2,0c0.1,0.8,0.1,1.6,0.2,2.5c0.5,8.9,1,17.7,1.6,26.6c0.3,4.3,2.7,5.8,6.9,5.1
		c5.5-1,11-1.9,16.6-2.7c3.3-0.5,4.8-2.3,4.2-5.7c-1.8-10.8-2.1-21.7-1.7-32.6c0.2-5.3,0.7-10.5,1.3-15.8c0.4-3.9-0.9-5.8-4.9-6.4
		c-10.8-1.6-21.7-3.2-32.5-4.8c-0.4-0.1-0.8-0.2-1.1-0.3c0-9.3,8.3-40.3,13.5-50.4c3.7,1.6,7.4,3.2,11.3,4.9
		c-1.6,4.2-3.4,8.2-4.7,12.4c-1.8,5.6-3.2,11.4-4.6,17.1c-0.6,2.6,0.6,4.6,3.3,5.2c6.1,1.5,12.3,3,18.5,4.3c2.9,0.6,4.5-0.7,5.4-3.8
		c1.7-5.9,3.1-11.9,5.3-17.7c3.7-9.8,7.7-19.4,13.2-28.4c2.1-3.4,1.5-5.2-1.9-7.3c-7.3-4.5-14.7-9.1-22-13.6c-2.5-1.5-5.1-2.9-8-4.5
		c9.4-14.9,19.8-28.7,31.9-40.8c3.2,2.9,6.2,5.7,9,8.2c-2.5,2.9-4.7,5.5-7,8c-2.3,2.6-4.7,5.2-7,7.9c-2,2.4-3.9,4.9-5.7,7.4
		c-2.1,2.9-1.7,4.8,1.2,6.9c4.7,3.4,9.4,6.8,14.2,10.2c3.3,2.3,4.8,1.8,7.4-1.3c4.5-5.5,9-11.1,13.9-16.1c6.1-6.1,12.6-11.7,19-17.5
		c0.9-0.9,1.9-1.7,2.8-2.6c1.6-1.7,1.8-3.5,0.4-5.4c-2.7-3.8-5.5-7.7-8.2-11.5c-3.2-4.4-6.6-8.7-9.8-13.1c-1-1.4-1.8-3-2.8-4.7
		c14.1-10,28.9-18.8,45.2-25.3c1.5,3.8,3,7.4,4.5,11.3c-1.2,0.6-2.4,1.2-3.6,1.8c-5.9,3-11.8,6-17.7,8.9c-1.9,0.9-3.8,1.7-5.5,2.8
		c-3.2,2-3.5,4.2-1.6,7.4c3,4.7,5.9,9.5,8.9,14.2c2.3,3.6,4.5,4,8.2,1.8c3.9-2.3,7.8-4.8,11.9-6.7c7.9-3.5,15.9-6.8,23.9-9.9
		c3-1.2,6.3-1.6,9.5-2.6c3.2-1,4.2-3.1,3.4-6.3c-2.8-11.3-5.5-22.5-8.2-33.8c5.2-2.8,41.3-7.2,51.3-6.3c0,4,0,8,0,12.5
		c-1.7,0-3.5-0.1-5.2,0c-7.7,0.5-15.3,0.9-23,1.5c-5.3,0.4-6.7,2.6-5.6,7.9c1,5,1.8,10.1,2.7,15.1c0.7,4.3,2.1,5.3,6.3,4.7
		c16.3-2.5,32.5-2.5,48.8-0.4c4,0.5,5.8-0.9,6.4-4.8c1.6-10.4,3.1-20.9,4.7-31.3c0.1-0.8,0.3-1.5,0.5-2.3
		c9.2,0.1,41.1,8.7,50.3,13.7c-1.6,3.7-3.2,7.5-4.9,11.4c-2.8-1.1-5.3-2.4-7.9-3.2c-6.9-2.2-13.7-4.2-20.7-6.1
		c-3.4-1-5.4,0.2-6.3,3.7c-1.5,5.9-2.9,11.8-4.2,17.8c-0.6,2.5,0.6,4.5,3.2,5.4c2.9,0.9,5.8,1.9,8.7,2.6c8.2,1.8,15.7,5.3,23.2,8.9
		c5.2,2.5,10.4,5.2,15.6,7.9c2.5,1.3,4.5,0.8,6.1-1.8c5.7-9.3,11.4-18.7,17.1-28c0.5-0.7,0.9-1.5,1.6-2.5c2.1,1.4,4,2.8,5.9,4.2
		c7.3,5.4,14.7,10.7,21.9,16.3c3.7,2.9,7.1,6.2,10.5,9.4c2.6,2.4,2.5,2.5,0,5c-2.1,2.1-4.1,4.3-5.9,6.2c-5.6-5-11-9.7-16.4-14.4
		c-2.2-1.9-4.6-3.7-7-5.4c-2.8-2-4.7-1.6-6.7,1.1c-3.5,4.8-6.9,9.6-10.4,14.4c-2.2,3-1.7,4.7,1.1,7c5.5,4.5,11,9,16.1,14
		c6,6,11.6,12.5,17.3,18.8c0.3,0.4,0.6,0.8,0.9,1.1c4,4.3,4.5,4.6,9.4,1.2C410.6,133.6,417.7,128.1,425,122.8z"/>
	<path style="stroke-width: 3px;stroke:#ffffff;" d="M247.2,78.8C156.8,79.8,74.2,155.2,79,259c4,86.5,75.3,161.9,171.3,162.3c93.6-0.2,172.9-76.5,170.8-175.4
		C419.4,155.8,345.6,77.7,247.2,78.8z M249.4,412.7c-90-0.4-161.7-72.7-162.2-162.9c0.9-91.2,72.3-158.5,154.1-162.4
		c99.1-4.7,171.4,74.4,171.6,161.7C412.9,340.5,339.8,413.1,249.4,412.7z"/>
</g>
</svg>
