<svg width="35" height="35" viewBox="0 0 35 35" fill="none" xmlns="http://www.w3.org/2000/svg">
<path d="M17.424 0.942886C7.81695 0.942886 0.0356445 8.72854 0.0356445 18.3313C0.0356445 26.0155 5.01742 32.5318 11.925 34.8285C12.7944 34.9923 13.1132 34.4547 13.1132 33.9924C13.1132 33.5795 13.0987 32.4854 13.0914 31.0364C8.25456 32.0855 7.23444 28.7035 7.23444 28.7035C6.44327 26.6965 5.29998 26.1604 5.29998 26.1604C3.72488 25.0823 5.4217 25.1041 5.4217 25.1041C7.16778 25.2258 8.08502 26.8951 8.08502 26.8951C9.63549 29.554 12.1554 28.7861 13.1494 28.3412C13.3059 27.2167 13.7536 26.4502 14.2507 26.0155C10.389 25.5808 6.33024 24.0854 6.33024 17.4227C6.33024 15.5245 7.00404 13.974 8.1198 12.7569C7.92418 12.3178 7.33732 10.55 8.27195 8.15472C8.27195 8.15472 9.72822 7.68813 13.0538 9.93703C14.4448 9.55014 15.9228 9.35887 17.4009 9.35017C18.8789 9.35887 20.3569 9.55014 21.748 9.93703C25.0517 7.68813 26.508 8.15472 26.508 8.15472C27.4426 10.55 26.8558 12.3178 26.6819 12.7569C27.7904 13.974 28.4642 15.5245 28.4642 17.4227C28.4642 24.1028 24.3997 25.5735 20.5308 26.001C21.1394 26.5227 21.7045 27.5891 21.7045 29.2179C21.7045 31.545 21.6827 33.4143 21.6827 33.9794C21.6827 34.4358 21.987 34.9792 22.8782 34.8053C29.835 32.5246 34.8124 26.0039 34.8124 18.3313C34.8124 8.72854 27.0268 0.942886 17.424 0.942886Z" fill="#16293C"/>
</svg>
