<svg width="35" height="29" viewBox="0 0 35 29" fill="none" xmlns="http://www.w3.org/2000/svg">
<path d="M34.7443 3.95972C33.4423 4.53296 32.063 4.91135 30.6508 5.08272C32.1377 4.18903 33.251 2.78751 33.7851 1.137C32.407 1.94121 30.8798 2.52662 29.2539 2.85265C28.1813 1.70564 26.76 0.944889 25.2106 0.688526C23.6613 0.432163 22.0706 0.694538 20.6857 1.43491C19.3008 2.17528 18.1991 3.35221 17.5516 4.78295C16.9042 6.21368 16.7473 7.81816 17.1052 9.34722C11.1787 9.06756 5.92886 6.22021 2.41206 1.91948C1.77274 3.00598 1.43927 4.24521 1.447 5.50583C1.447 7.98368 2.70766 10.1616 4.61749 11.4411C3.48559 11.405 2.37869 11.099 1.38904 10.5485V10.6354C1.3884 12.2821 1.95745 13.8783 2.99965 15.1531C4.04185 16.428 5.49301 17.3031 7.10692 17.6299C6.06116 17.9101 4.96585 17.9522 3.90166 17.7531C4.35974 19.1702 5.24878 20.409 6.44474 21.2967C7.6407 22.1843 9.08391 22.6764 10.573 22.7044C8.05101 24.6837 4.93696 25.758 1.73101 25.7546C1.16589 25.7546 0.602216 25.7213 0.0356445 25.6575C3.30424 27.7504 7.10477 28.8613 10.986 28.8584C24.1041 28.8584 31.2695 17.9965 31.2695 8.59372C31.2695 8.28943 31.2695 7.98513 31.2478 7.68083C32.6476 6.67356 33.855 5.42298 34.8124 3.9887L34.7443 3.95972Z" fill="#16293C"/>
</svg>
