<svg width="28" height="28" viewBox="0 0 28 28" fill="none" xmlns="http://www.w3.org/2000/svg">
<path d="M9.5 3C9.5 1.89543 10.3954 1 11.5 1H16.5C17.6046 1 18.5 1.89543 18.5 3V25C18.5 26.1046 17.6046 27 16.5 27H11.5C10.3954 27 9.5 26.1046 9.5 25V3Z" fill="#FAF2E9"/>
<path d="M3 18.5C1.89543 18.5 1 17.6046 1 16.5L1 11.5C1 10.3954 1.89543 9.5 3 9.5L25 9.5C26.1046 9.5 27 10.3954 27 11.5V16.5C27 17.6046 26.1046 18.5 25 18.5L3 18.5Z" fill="#FAF2E9"/>
<path d="M9 3V9L3 9C1.61929 9 0.5 10.1193 0.5 11.5L0.5 16.5C0.5 17.8807 1.61929 19 3 19H9V25C9 26.3807 10.1193 27.5 11.5 27.5H16.5C17.8807 27.5 19 26.3807 19 25V19H25C26.3807 19 27.5 17.8807 27.5 16.5V11.5C27.5 10.1193 26.3807 9 25 9L19 9V3C19 1.61929 17.8807 0.5 16.5 0.5H11.5C10.1193 0.5 9 1.61929 9 3Z" stroke="black" stroke-opacity="0.5"/>
</svg>
