<?xml version="1.0" encoding="utf-8"?>
<!-- Generator: Adobe Illustrator 26.0.3, SVG Export Plug-In . SVG Version: 6.00 Build 0)  -->
<svg version="1.1" id="Layer_1" xmlns="http://www.w3.org/2000/svg" xmlns:xlink="http://www.w3.org/1999/xlink" x="0px" y="0px"
	 viewBox="0 0 500 500" style="enable-background:new 0 0 500 500;" xml:space="preserve">
<style type="text/css">
	.st0{fill:none;stroke:#F3B754;stroke-width:4;stroke-miterlimit:10;}
</style>
<path class="st0" d="M408.3,74.3l-6.8-6.3l2.5-2.7l10.5-0.5l7.6,7l-12.6,12.6c-12.9-13.4-67.6-64-159.4-64S103.6,71,90.7,84.4
	L78.1,71.8l7.6-7l10.5,0.5l2.5,2.7l-6.5,6.6"/>
<path class="st0" d="M391.4,46.1C362.3,25.8,314.7,2.4,250.1,2.4H250c-64.6,0-112.2,23.4-141.3,43.7"/>
<path class="st0" d="M425.7,408.3l6.3-6.8l2.7,2.5l0.5,10.5l-7,7.6l-12.6-12.6c13.4-12.9,64-67.6,64-159.4s-50.6-146.5-64-159.4
	l12.6-12.6l7,7.6l-0.5,10.5l-2.7,2.5l-6.6-6.5"/>
<path class="st0" d="M453.9,391.4c20.3-29.1,43.7-76.7,43.7-141.3V250c0-64.6-23.4-112.2-43.7-141.3"/>
<path class="st0" d="M91.7,425.7l6.8,6.3l-2.5,2.7l-10.5,0.5l-7.6-7l12.6-12.6c12.9,13.4,67.6,64,159.4,64s146.5-50.6,159.4-64
	l12.6,12.6l-7.6,7l-10.5-0.5l-2.5-2.7l6.5-6.6"/>
<path class="st0" d="M108.6,453.9c29.1,20.3,76.7,43.7,141.3,43.7h0.1c64.6,0,112.2-23.4,141.3-43.7"/>
<path class="st0" d="M74.3,91.7L68,98.5L65.3,96l-0.5-10.5l7-7.6l12.6,12.6c-13.4,12.9-64,67.6-64,159.4s50.6,146.5,64,159.4
	l-12.6,12.6l-7-7.6l0.5-10.5l2.7-2.5l6.6,6.5"/>
<path class="st0" d="M46.1,108.6C25.8,137.7,2.4,185.3,2.4,249.9v0.1c0,64.6,23.4,112.2,43.7,141.3"/>
</svg>
