<?xml version="1.0" encoding="utf-8"?>
<!-- Generator: Adobe Illustrator 26.0.3, SVG Export Plug-In . SVG Version: 6.00 Build 0)  -->
<svg version="1.1" id="Слой_1" xmlns="http://www.w3.org/2000/svg" xmlns:xlink="http://www.w3.org/1999/xlink" x="0px" y="0px"
	 viewBox="0 0 534.8 800" style="enable-background:new 0 0 534.8 800;" xml:space="preserve">
<style type="text/css">
	.st0{opacity:0.5;fill:#FFFFFF;}
	.st1{fill:#00FFF8;}
	.st2{display:none;}
	.st3{fill:#FFFFFF;}
	.st4{opacity:0.21;fill:#7A7A7A;}
</style>
<path class="st0" d="M335.9,419.9V42.5h3.5c11.7,0,21.3-9.5,21.3-21.3v0c0-11.7-9.5-21.3-21.3-21.3l-144,0
	c-11.7,0-21.3,9.5-21.3,21.3v0c0,11.7,9.5,21.3,21.3,21.3h3.5v377.4C84.4,444.2,0,528,0,627.5c0,50.6,21.8,97,58.2,133.7
	c24.7,24.9,58.5,38.8,93.6,38.8H383c35.1,0,68.9-13.9,93.6-38.8c36.4-36.7,58.2-83.2,58.2-133.7C534.8,528,450.4,444.2,335.9,419.9z
	"/>
<path class="st1" d="M5.1,634.4c1.7,46.8,22.8,89.8,57.8,123.9c24,23.3,56.8,36.3,91,36.3h224.7c34.1,0,66.9-13,91-36.3
	c35.1-34,56.6-76.6,58.8-123.9H5.1z"/>
<g id="Слой_2_00000098921794458041993580000017785698260738425781_" class="st2">
</g>
<g>
	<path class="st3" d="M391.9,513.4l6.2,6.8c44.3,55,55.3,116.6,15.7,194.6c-1.5,3-4.9,4.8-8.3,3.7l0,0c-3.3-1.1-5-4.6-3.8-7.8
		l11.2-28.2c21.9-55.2,9.8-117-31.4-160.4l0,0c-2.4-2.5-2.3-6.4,0.3-8.9l0,0C384.7,510.4,389.3,510.5,391.9,513.4z"/>
	<path class="st3" d="M294.4,334.2L294.4,334.2c-4.4,0-8.1-3.6-8.1-8.1V156.4c0-4.4,3.6-8.1,8.1-8.1l0,0c4.4,0,8.1,3.6,8.1,8.1
		v169.7C302.5,330.6,298.9,334.2,294.4,334.2z"/>
</g>
<rect x="198.9" y="42.5" class="st4" width="137" height="4.3"/>
</svg>
