<svg xmlns="http://www.w3.org/2000/svg" xmlns:xlink="http://www.w3.org/1999/xlink" x="0px" y="0px" viewBox="0 0 41.9 125.9" xml:space="preserve">
	<style>
		g { fill: #F3B754 }
	</style>
	<g>
		<polygon points="0.1,41.8 0.1,41.9 0.1,41.9 "/>
		<polygon points="2.2,31 10,31.1 10.1,36.1 6.9,36.1 6.8,38.2 12.1,38.3 12,29.1 0.1,29.1 0.1,41.8 0.1,41.9 12.2,41.9 12.2,39.8 
			2.2,39.8 	"/>
		<polygon points="9.2,0 9.2,9.2 0,9.2 0.1,24 12,24 12,14.9 7.7,14.9 5.3,17.3 6.7,18.7 8.6,16.9 10,16.9 10,21.9 2.2,21.8 
			2.1,11.2 9.5,11.2 11.2,11.2 11.2,2.1 21.9,2.1 22,10 17,9.9 17,8.5 18.7,6.7 17.3,5.3 14.9,7.7 14.9,12 24,12 24,0.1 	"/>
		<polygon points="6.4,0 0,0 0,6.4 6.3,6.3 	"/>
		<polygon points="29,0.1 29.1,12.1 38.2,12.2 38.1,6.9 36.1,6.9 36.1,10.2 31,10.1 31,2.3 39.8,2.3 39.8,12 41.9,12 41.9,0.1 	"/>
	</g>
	<g>
		<polygon points="0.1,84.1 0.1,84 0.1,84 "/>
		<polygon points="2.2,94.9 10,94.8 10.1,89.8 6.9,89.8 6.8,87.7 12.1,87.6 12,96.8 0.1,96.8 0.1,84.1 0.1,84 12.2,84 12.2,86.1 
			2.2,86.1 	"/>
		<polygon points="9.2,125.9 9.2,116.7 0,116.7 0.1,101.9 12,101.9 12,111 7.7,111 5.3,108.6 6.7,107.2 8.6,109 10,109 10,104 
			2.2,104 2.1,114.6 9.5,114.6 11.2,114.6 11.2,123.8 21.9,123.8 22,115.9 17,116 17,117.4 18.7,119.2 17.3,120.6 14.9,118.2 
			14.9,113.9 24,113.9 24,125.8 	"/>
		<polygon points="6.4,125.9 0,125.9 0,119.5 6.3,119.6 	"/>
		<polygon points="29,125.8 29.1,113.8 38.2,113.7 38.1,119 36.1,119 36.1,115.7 31,115.8 31,123.6 39.8,123.6 39.8,113.9 
			41.9,113.9 41.9,125.8 	"/>
	</g>
</svg>
