<svg width="35" height="35" viewBox="0 0 35 35" fill="none" xmlns="http://www.w3.org/2000/svg">
<path d="M29.664 29.6749H24.5142V21.6053C24.5142 19.6809 24.475 17.2045 21.8305 17.2045C19.1455 17.2045 18.7354 19.2984 18.7354 21.4633V29.6749H13.5856V13.0806H18.5325V15.3425H18.5992C19.2904 14.0384 20.9713 12.6618 23.4824 12.6618C28.7004 12.6618 29.6655 16.096 29.6655 20.5663V29.6749H29.664ZM7.76913 10.81C6.11144 10.81 4.77978 9.46816 4.77978 7.81771C4.77978 6.16872 6.11289 4.82836 7.76913 4.82836C9.42103 4.82836 10.7599 6.16872 10.7599 7.81771C10.7599 9.46816 9.41958 10.81 7.76913 10.81ZM10.3513 29.6749H5.18696V13.0806H10.3513V29.6749ZM32.2404 0.0393066H2.60188C1.18328 0.0393066 0.0356445 1.16086 0.0356445 2.54468V32.3107C0.0356445 33.696 1.18328 34.8161 2.60188 34.8161H32.236C33.6532 34.8161 34.8124 33.696 34.8124 32.3107V2.54468C34.8124 1.16086 33.6532 0.0393066 32.236 0.0393066H32.2404Z" fill="#16293C"/>
</svg>
