<svg viewBox="0 0 800 800">
	<rect x="79.1" y="720.9" width="80.1" height="80.1" />
	<rect x="159.2" y="720.9" width="80.1" height="80.1" />
	<rect x="239.3" y="720.9" width="80.1" height="80.1" />
	<rect x="319.4" y="720.9" width="80.1" height="80.1" />
	<rect x="399.5" y="720.9" width="80.1" height="80.1" />
	<rect x="479.6" y="720.9" width="80.1" height="80.1" />
	<rect x="559.7" y="720.9" width="80.1" height="80.1" />
	<rect x="639.8" y="720.9" width="80.1" height="80.1" />
	<rect x="719.9" y="720.9" width="80.1" height="80.1" />
	<rect x="-1" y="720.9" width="80.1" height="80.1" />
	<rect x="79.1" y="640.8" width="80.1" height="80.1" />
	<rect x="159.2" y="640.8" width="80.1" height="80.1" />
	<rect x="239.3" y="640.8" width="80.1" height="80.1" />
	<rect x="319.4" y="640.8" width="80.1" height="80.1" />
	<rect x="399.5" y="640.8" width="80.1" height="80.1" />
	<rect x="479.6" y="640.8" width="80.1" height="80.1" />
	<rect x="559.7" y="640.8" width="80.1" height="80.1" />
	<rect x="639.8" y="640.8" width="80.1" height="80.1" />
	<rect x="719.9" y="640.8" width="80.1" height="80.1" />
	<rect x="-1" y="640.8" width="80.1" height="80.1" />
	<rect x="79.1" y="560.7" width="80.1" height="80.1" />
	<rect x="159.2" y="560.7" width="80.1" height="80.1" />
	<rect x="239.3" y="560.7" width="80.1" height="80.1" />
	<rect x="319.4" y="560.7" width="80.1" height="80.1" />
	<rect x="399.5" y="560.7" width="80.1" height="80.1" />
	<rect x="479.6" y="560.7" width="80.1" height="80.1" />
	<rect x="559.7" y="560.7" width="80.1" height="80.1" />
	<rect x="639.8" y="560.7" width="80.1" height="80.1" />
	<rect x="719.9" y="560.7" width="80.1" height="80.1" />
	<rect x="-1" y="560.7" width="80.1" height="80.1" />
	<rect x="79.1" y="480.6" width="80.1" height="80.1" />
	<rect x="159.2" y="480.6" width="80.1" height="80.1" />
	<rect x="239.3" y="480.6" width="80.1" height="80.1" />
	<rect x="319.4" y="480.6" width="80.1" height="80.1" />
	<rect x="399.5" y="480.6" width="80.1" height="80.1" />
	<rect x="479.6" y="480.6" width="80.1" height="80.1" />
	<rect x="559.7" y="480.6" width="80.1" height="80.1" />
	<rect x="639.8" y="480.6" width="80.1" height="80.1" />
	<rect x="719.9" y="480.6" width="80.1" height="80.1" />
	<rect x="-1" y="480.6" width="80.1" height="80.1" />
	<rect x="79.1" y="400.5" width="80.1" height="80.1" />
	<rect x="159.2" y="400.5" width="80.1" height="80.1" />
	<rect x="239.3" y="400.5" width="80.1" height="80.1" />
	<rect x="319.4" y="400.5" width="80.1" height="80.1" />
	<rect x="399.5" y="400.5" width="80.1" height="80.1" />
	<rect x="479.6" y="400.5" width="80.1" height="80.1" />
	<rect x="559.7" y="400.5" width="80.1" height="80.1" />
	<rect x="639.8" y="400.5" width="80.1" height="80.1" />
	<rect x="719.9" y="400.5" width="80.1" height="80.1" />
	<rect x="-1" y="400.5" width="80.1" height="80.1" />
	<rect x="79.1" y="320.4" width="80.1" height="80.1" />
	<rect x="159.2" y="320.4" width="80.1" height="80.1" />
	<rect x="239.3" y="320.4" width="80.1" height="80.1" />
	<rect x="319.4" y="320.4" width="80.1" height="80.1" />
	<rect x="399.5" y="320.4" width="80.1" height="80.1" />
	<rect x="479.6" y="320.4" width="80.1" height="80.1" />
	<rect x="559.7" y="320.4" width="80.1" height="80.1" />
	<rect x="639.8" y="320.4" width="80.1" height="80.1" />
	<rect x="719.9" y="320.4" width="80.1" height="80.1" />
	<rect x="-1" y="320.4" width="80.1" height="80.1" />
	<rect x="79.1" y="240.3" width="80.1" height="80.1" />
	<rect x="159.2" y="240.3" width="80.1" height="80.1" />
	<rect x="239.3" y="240.3" width="80.1" height="80.1" />
	<rect x="319.4" y="240.3" width="80.1" height="80.1" />
	<rect x="399.5" y="240.3" width="80.1" height="80.1" />
	<rect x="479.6" y="240.3" width="80.1" height="80.1" />
	<rect x="559.7" y="240.3" width="80.1" height="80.1" />
	<rect x="639.8" y="240.3" width="80.1" height="80.1" />
	<rect x="719.9" y="240.3" width="80.1" height="80.1" />
	<rect x="-1" y="240.3" width="80.1" height="80.1" />
	<rect x="79.1" y="160.2" width="80.1" height="80.1" />
	<rect x="159.2" y="160.2" width="80.1" height="80.1" />
	<rect x="239.3" y="160.2" width="80.1" height="80.1" />
	<rect x="319.4" y="160.2" width="80.1" height="80.1" />
	<rect x="399.5" y="160.2" width="80.1" height="80.1" />
	<rect x="479.6" y="160.2" width="80.1" height="80.1" />
	<rect x="559.7" y="160.2" width="80.1" height="80.1" />
	<rect x="639.8" y="160.2" width="80.1" height="80.1" />
	<rect x="719.9" y="160.2" width="80.1" height="80.1" />
	<rect x="-1" y="160.2" width="80.1" height="80.1" />
	<rect x="79.1" y="80.1" width="80.1" height="80.1" />
	<rect x="159.2" y="80.1" width="80.1" height="80.1" />
	<rect x="239.3" y="80.1" width="80.1" height="80.1" />
	<rect x="319.4" y="80.1" width="80.1" height="80.1" />
	<rect x="399.5" y="80.1" width="80.1" height="80.1" />
	<rect x="479.6" y="80.1" width="80.1" height="80.1" />
	<rect x="559.7" y="80.1" width="80.1" height="80.1" />
	<rect x="639.8" y="80.1" width="80.1" height="80.1" />
	<rect x="719.9" y="80.1" width="80.1" height="80.1" />
	<rect x="-1" y="80.1" width="80.1" height="80.1" />
	<rect x="79.1" width="80.1" height="80.1" />
	<rect x="159.2" width="80.1" height="80.1" />
	<rect x="239.3" width="80.1" height="80.1" />
	<rect x="319.4" width="80.1" height="80.1" />
	<rect x="399.5" width="80.1" height="80.1" />
	<rect x="479.6" width="80.1" height="80.1" />
	<rect x="559.7" width="80.1" height="80.1" />
	<rect x="639.8" width="80.1" height="80.1" />
	<rect x="719.9" width="80.1" height="80.1" />
	<rect x="-1" width="80.1" height="80.1" />
</svg>